<svg width="230" height="54" viewBox="0 0 230 54" fill="none" xmlns="http://www.w3.org/2000/svg">
<path d="M34.9631 15.5255C38.7741 7.50829 46.8586 2.3999 55.7356 2.3999H242.125V80.3999H4.12451L34.9631 15.5255Z" stroke="url(#paint0_linear_407_10997)" stroke-width="4"/>
<path d="M39.585 19.4488C42.8914 12.4581 49.9316 8 57.6648 8H236V82H10L39.585 19.4488Z" fill="url(#paint1_linear_407_10997)"/>
<path d="M55.4496 42L63.3216 21.392H68.0576L75.8976 42H71.4176L69.4656 37.04H61.8816L59.9616 42H55.4496ZM62.5216 33.712H68.8256L65.6576 25.424L62.5216 33.712ZM78.9021 42V21.392H87.5421C90.6355 21.392 92.9608 22.192 94.5181 23.792C96.0968 25.3707 96.8861 28.0373 96.8861 31.792C96.8861 35.3333 96.1075 37.9253 94.5501 39.568C93.0141 41.1893 90.6781 42 87.5421 42H78.9021ZM83.2221 38.672H86.9341C88.1501 38.672 89.1741 38.4907 90.0061 38.128C90.8381 37.744 91.4568 37.0613 91.8621 36.08C92.2888 35.0773 92.5021 33.648 92.5021 31.792C92.5021 29.936 92.3101 28.5173 91.9261 27.536C91.5421 26.5547 90.9448 25.8827 90.1341 25.52C89.3235 25.1573 88.2568 24.976 86.9341 24.976H83.2221V38.672ZM99.9021 42V21.392H108.542C111.635 21.392 113.961 22.192 115.518 23.792C117.097 25.3707 117.886 28.0373 117.886 31.792C117.886 35.3333 117.107 37.9253 115.55 39.568C114.014 41.1893 111.678 42 108.542 42H99.9021ZM104.222 38.672H107.934C109.15 38.672 110.174 38.4907 111.006 38.128C111.838 37.744 112.457 37.0613 112.862 36.08C113.289 35.0773 113.502 33.648 113.502 31.792C113.502 29.936 113.31 28.5173 112.926 27.536C112.542 26.5547 111.945 25.8827 111.134 25.52C110.323 25.1573 109.257 24.976 107.934 24.976H104.222V38.672ZM137.981 42.32C134.525 42.32 131.88 41.392 130.045 39.536C128.211 37.6587 127.293 35.1093 127.293 31.888C127.293 28.4747 128.179 25.8187 129.949 23.92C131.741 22.0213 134.408 21.072 137.949 21.072C139.187 21.072 140.296 21.168 141.277 21.36C142.28 21.5307 143.219 21.776 144.093 22.096V25.872C142.28 25.1253 140.339 24.752 138.269 24.752C135.923 24.752 134.237 25.3387 133.213 26.512C132.189 27.6853 131.677 29.4773 131.677 31.888C131.677 36.4107 133.896 38.672 138.333 38.672C139.336 38.672 140.328 38.5867 141.309 38.416C142.291 38.224 143.229 37.9467 144.125 37.584V41.392C143.251 41.6693 142.312 41.8933 141.309 42.064C140.328 42.2347 139.219 42.32 137.981 42.32ZM145.512 42L153.384 21.392H158.12L165.96 42H161.48L159.528 37.04H151.944L150.024 42H145.512ZM152.584 33.712H158.888L155.72 25.424L152.584 33.712ZM173.927 42.32C172.604 42.32 171.367 42.224 170.215 42.032C169.084 41.84 168.103 41.5627 167.271 41.2V37.392C168.21 37.776 169.223 38.0853 170.311 38.32C171.399 38.5547 172.466 38.672 173.511 38.672C175.004 38.672 176.103 38.5333 176.807 38.256C177.511 37.9787 177.863 37.3493 177.863 36.368C177.863 35.7493 177.714 35.2587 177.415 34.896C177.116 34.5333 176.594 34.2133 175.847 33.936C175.122 33.6373 174.087 33.3067 172.743 32.944C170.588 32.3467 169.074 31.6 168.199 30.704C167.324 29.808 166.887 28.5707 166.887 26.992C166.887 25.0933 167.58 23.632 168.967 22.608C170.354 21.584 172.37 21.072 175.015 21.072C176.252 21.072 177.404 21.1573 178.471 21.328C179.538 21.4987 180.402 21.7013 181.063 21.936V25.744C179.314 25.0827 177.49 24.752 175.591 24.752C174.247 24.752 173.191 24.9013 172.423 25.2C171.655 25.4773 171.271 26.0747 171.271 26.992C171.271 27.5253 171.41 27.952 171.687 28.272C171.964 28.592 172.434 28.88 173.095 29.136C173.778 29.392 174.727 29.68 175.943 30C177.628 30.448 178.93 30.9813 179.847 31.6C180.764 32.2187 181.394 32.9227 181.735 33.712C182.098 34.5013 182.279 35.3867 182.279 36.368C182.279 38.16 181.596 39.6 180.231 40.688C178.866 41.776 176.764 42.32 173.927 42.32ZM185.277 42V21.392H189.597V30.032H198.589V21.392H202.909V42H198.589V33.36H189.597V42H185.277Z" fill="#520828"/>
<defs>
<linearGradient id="paint0_linear_407_10997" x1="128.032" y1="-5.62951" x2="128.358" y2="75.8104" gradientUnits="userSpaceOnUse">
<stop stop-color="#C69500"/>
<stop offset="0.2" stop-color="#F3D0AA"/>
<stop offset="0.44" stop-color="#D3A52F"/>
<stop offset="1" stop-color="#CFA57E"/>
</linearGradient>
<linearGradient id="paint1_linear_407_10997" x1="113" y1="10" x2="107.976" y2="42.8555" gradientUnits="userSpaceOnUse">
<stop stop-color="#FEEE9C"/>
<stop offset="0.851" stop-color="#EED060"/>
</linearGradient>
</defs>
</svg>
