<svg width="166" height="51" viewBox="0 0 166 51" fill="none" xmlns="http://www.w3.org/2000/svg">
<path d="M81.9689 3.10688C82.6545 3.03582 83.3455 3.03582 84.0311 3.10688L156.031 10.5703C161.127 11.0986 165 15.3933 165 20.517V29.3855C165 34.5501 161.067 38.8652 155.925 39.3426L85.1344 45.9154C84.5284 45.9717 83.9185 45.9725 83.3124 45.9179L10.1024 39.3203C4.9483 38.8558 1 34.5357 1 29.3607V20.517C1 15.3933 4.87259 11.0986 9.96894 10.5703L81.9689 3.10688Z" fill="url(#paint0_linear_407_11081)" stroke="url(#paint1_linear_407_11081)" stroke-width="2"/>
<path d="M82.7778 34.1842C83.5841 34.1842 84.2112 33.6098 84.3007 32.7481L85.5549 3.06884C85.5549 2.9731 85.5549 2.87736 85.5549 2.78162C85.4653 1.15405 84.2112 -0.0905662 82.6882 0.00517337C81.1653 0.100913 80.0007 1.44127 80.0903 3.06884L81.3118 31.9762C81.3335 32.4897 81.3604 33.0278 81.6465 33.4547C81.9119 33.8507 82.306 34.1212 82.7778 34.1842Z" fill="url(#paint2_linear_407_11081)"/>
<path d="M94.9233 31.9524L104.084 21.0009C104.468 20.5416 104.61 19.9263 104.465 19.3452L104.427 19.194C104.29 18.6448 103.874 18.2087 103.332 18.0467C102.767 17.8781 102.156 18.0332 101.74 18.4505L91.7475 28.4744L91.5846 28.6528C90.7703 29.6337 90.8517 31.2389 91.7475 32.1307C92.6432 33.1117 94.109 33.0225 94.9233 31.9524Z" fill="url(#paint3_linear_407_11081)"/>
<path d="M91.9022 18.9059C92.6804 19.3597 93.718 19.1782 94.1504 18.2705L97.5226 12.3706C97.7451 11.9036 97.8776 11.3886 97.8558 10.8718C97.8055 9.68291 97.0183 8.58491 95.8798 8.28611C94.4963 7.92305 93.0263 8.83072 92.6804 10.283L91.0375 16.9997C90.9511 17.7259 91.2105 18.452 91.9022 18.9059Z" fill="url(#paint4_linear_407_11081)"/>
<path d="M72.8786 18.1719C73.2259 18.8865 74.0073 19.2948 74.702 19.0907C75.5703 18.7844 76.1781 17.7636 75.9176 16.7428L74.3547 9.18867C74.2678 8.88242 74.181 8.57618 74.0942 8.37201C73.3127 6.84078 71.6629 6.43245 70.4473 7.24911C69.1449 8.16785 68.7976 10.1074 69.4922 11.5366L72.8786 18.1719Z" fill="url(#paint5_linear_407_11081)"/>
<path d="M102.745 12.036L106.176 13.0025C106.44 13.0903 106.616 13.266 106.704 13.5296L107.672 16.9562C107.936 17.8348 109.168 18.0984 109.696 17.3076L111.234 14.9333C111.499 14.5258 111.762 13.9689 112.248 13.9689L115.855 14.1446C116.823 14.2325 117.351 13.0903 116.735 12.3874L114.447 9.57589C114.271 9.40017 114.271 9.13658 114.359 8.873L115.591 5.53429C115.943 4.65568 115.063 3.77707 114.183 4.12852L110.84 5.35857C110.381 5.51141 109.946 5.11687 109.57 4.81195L107.32 2.98633C106.616 2.3713 105.472 2.98633 105.56 3.86493L105.736 7.46723C105.736 7.73081 105.648 7.90653 105.384 8.08225L102.393 10.1031C101.689 10.6302 101.865 11.7724 102.745 12.036Z" fill="url(#paint6_linear_407_11081)"/>
<path d="M62.5338 19.355C62.3897 19.9373 62.531 20.5534 62.9144 21.0148L72.0561 32.0154L72.2186 32.1946C73.1125 33.0903 74.5752 33.0007 75.3878 32.0154C76.2004 31.0301 76.2004 29.4177 75.2253 28.522L65.2542 18.4537C64.8393 18.0348 64.2271 17.879 63.6625 18.0488C63.1231 18.2109 62.7093 18.6458 62.574 19.1925L62.5338 19.355Z" fill="url(#paint7_linear_407_11081)"/>
<path d="M60.4323 32.7631C61.0676 32.9373 61.7824 32.676 62.1001 31.9791C62.4972 31.195 62.3384 30.1497 61.5442 29.7141L56.6504 26.4935C56.4719 26.376 56.2722 26.2702 56.0859 26.1655C55.8705 26.0444 55.6266 26.0117 55.3806 25.9882C54.2269 25.8783 53.0951 26.7113 52.8078 27.9718C52.4902 29.3657 53.2844 30.8466 54.5551 31.195L60.4323 32.7631Z" fill="url(#paint8_linear_407_11081)"/>
<path d="M51.0586 14.1282L54.3042 13.9529C54.5416 13.9529 54.7 14.0405 54.8583 14.3034L56.6789 17.2822C57.1539 18.0708 58.2621 17.8955 58.4996 16.9318L59.3703 13.5149C59.4495 13.252 59.6078 13.0768 59.8453 12.9892L62.9325 12.0254C63.7241 11.7626 63.9616 10.536 63.2491 10.0103L61.1338 8.49536C60.7509 8.22111 60.2411 7.94052 60.2411 7.4695L60.3994 3.87734C60.4786 2.91359 59.4495 2.3879 58.8162 3.0012L56.6129 4.7943C56.288 5.05874 55.9404 5.4225 55.541 5.29611C55.5245 5.2909 55.508 5.28524 55.4915 5.27916L52.4835 4.05257C51.6919 3.70211 50.9003 4.57825 51.2169 5.45439L52.3252 8.78371C52.4043 9.04655 52.4043 9.30939 52.246 9.48462L50.1879 12.2883C49.7129 13.0768 50.1879 14.1282 51.0586 14.1282Z" fill="url(#paint9_linear_407_11081)"/>
<path d="M105.464 32.7762L112.179 30.8134C112.451 30.7101 112.723 30.6068 112.904 30.5035C114.266 29.5738 114.629 27.611 113.903 26.1648C113.086 24.6152 111.362 24.202 110.092 25.0284L104.193 29.0573C103.558 29.4705 103.195 30.4002 103.377 31.2266C103.558 32.363 104.466 32.9828 105.464 32.7762Z" fill="url(#paint10_linear_407_11081)"/>
<path d="M0 41.4285C0 45.0601 3.78284 48 8.45576 48H157.544C162.217 48 166 45.0601 166 41.4285V30H0V41.4285Z" fill="url(#paint11_linear_407_11081)"/>
<path d="M0 41.4285C0 45.0601 3.78284 48 8.45576 48H157.544C162.217 48 166 45.0601 166 41.4285V30H0V41.4285Z" fill="url(#paint12_radial_407_11081)" fill-opacity="0.53"/>
<path d="M19.9301 42.912H21.7841C22.0001 42.636 22.1381 42.318 22.1981 41.958C22.2581 41.586 22.2881 40.842 22.2881 39.726V32.4H24.7541V38.88C24.7541 39.684 24.7361 40.308 24.7001 40.752C24.6761 41.196 24.6041 41.7 24.4841 42.264C24.2561 43.332 23.6861 44.244 22.7741 45H19.9301V42.912ZM31.9297 45L31.5517 43.002H28.7077L28.3297 45H25.8817L28.3117 32.4H32.0377L34.3417 45H31.9297ZM30.0937 34.74L29.3917 38.934L28.9957 41.076H31.2457L30.8317 38.934L30.1297 34.74H30.0937ZM39.2461 42.912H42.4141V45H37.8421C37.0501 44.256 36.4501 43.314 36.0421 42.174C35.6341 41.034 35.4301 39.864 35.4301 38.664C35.4301 37.452 35.6581 36.288 36.1141 35.172C36.5701 34.056 37.2481 33.132 38.1481 32.4H42.4141V34.56H39.2461C38.9221 34.932 38.6401 35.532 38.4001 36.36C38.1721 37.188 38.0581 37.98 38.0581 38.736C38.0581 39.492 38.1721 40.284 38.4001 41.112C38.6401 41.94 38.9221 42.54 39.2461 42.912ZM44.2746 45V32.4H46.7406V37.71H46.8306L49.0806 32.4H51.6186L48.9906 38.412L51.7446 45H49.0086L46.8666 39.492H46.7406V45H44.2746ZM55.5766 34.56V39.06H57.1786C57.8386 38.52 58.1686 37.728 58.1686 36.684C58.1686 36.24 58.0786 35.82 57.8986 35.424C57.7306 35.028 57.5266 34.74 57.2866 34.56H55.5766ZM53.1466 45V32.4H58.0246C58.8406 32.76 59.4826 33.312 59.9506 34.056C60.4306 34.8 60.6706 35.67 60.6706 36.666C60.6706 37.65 60.4246 38.562 59.9326 39.402C59.4406 40.242 58.7146 40.836 57.7546 41.184H55.5766V45H53.1466ZM68.2206 32.4C69.0606 33.084 69.6846 34.002 70.0926 35.154C70.5006 36.306 70.7046 37.494 70.7046 38.718C70.7046 39.93 70.5066 41.082 70.1106 42.174C69.7146 43.266 69.0846 44.208 68.2206 45H64.5126C63.6486 44.208 63.0186 43.266 62.6226 42.174C62.2266 41.082 62.0286 39.93 62.0286 38.718C62.0286 37.494 62.2326 36.306 62.6406 35.154C63.0486 34.002 63.6726 33.084 64.5126 32.4H68.2206ZM65.7186 42.912H67.0146C67.3146 42.564 67.5666 42 67.7706 41.22C67.9866 40.428 68.0946 39.594 68.0946 38.718C68.0946 37.842 67.9926 37.02 67.7886 36.252C67.5846 35.472 67.3326 34.908 67.0326 34.56H65.7186C65.4186 34.908 65.1606 35.472 64.9446 36.252C64.7406 37.02 64.6386 37.842 64.6386 38.718C64.6386 39.594 64.7406 40.428 64.9446 41.22C65.1606 42 65.4186 42.564 65.7186 42.912ZM74.0497 34.56H71.3317V32.4H79.2157V34.56H76.4977V45H74.0497V34.56Z" fill="#1C5800"/>
<path d="M90.889 32.4H95.209V34.56H91.753L91.699 34.668L94.579 39.924C95.167 40.98 95.461 41.784 95.461 42.336C95.461 43.548 95.059 44.436 94.255 45H89.485V42.912H93.211L93.265 42.804L90.025 36.99C89.557 36.15 89.323 35.466 89.323 34.938C89.323 33.69 89.845 32.844 90.889 32.4ZM99.1455 34.56V39.06H100.748C101.408 38.52 101.738 37.728 101.738 36.684C101.738 36.24 101.648 35.82 101.468 35.424C101.3 35.028 101.096 34.74 100.856 34.56H99.1455ZM96.7155 45V32.4H101.594C102.41 32.76 103.052 33.312 103.52 34.056C104 34.8 104.24 35.67 104.24 36.666C104.24 37.65 103.994 38.562 103.502 39.402C103.01 40.242 102.284 40.836 101.324 41.184H99.1455V45H96.7155ZM105.557 45V32.4H112.019V34.56H108.023V37.566H111.587V39.654H108.023V42.912H112.091V45H105.557ZM116.801 42.912H119.969V45H115.397C114.605 44.256 114.005 43.314 113.597 42.174C113.189 41.034 112.985 39.864 112.985 38.664C112.985 37.452 113.213 36.288 113.669 35.172C114.125 34.056 114.803 33.132 115.703 32.4H119.969V34.56H116.801C116.477 34.932 116.195 35.532 115.955 36.36C115.727 37.188 115.613 37.98 115.613 38.736C115.613 39.492 115.727 40.284 115.955 41.112C116.195 41.94 116.477 42.54 116.801 42.912ZM121.29 45V32.4H123.756V45H121.29ZM130.855 45L130.477 43.002H127.633L127.255 45H124.807L127.237 32.4H130.963L133.267 45H130.855ZM129.019 34.74L128.317 38.934L127.921 41.076H130.171L129.757 38.934L129.055 34.74H129.019ZM134.315 45V32.4H136.781V42.912H140.525V45H134.315Z" fill="#6400C7"/>
<defs>
<linearGradient id="paint0_linear_407_11081" x1="85.7186" y1="54" x2="85.2169" y2="7.50003" gradientUnits="userSpaceOnUse">
<stop stop-color="#D438E0"/>
<stop offset="0.351934" stop-color="#B840D8"/>
<stop offset="0.666" stop-color="#7614B5"/>
<stop offset="1" stop-color="#B33BE2"/>
</linearGradient>
<linearGradient id="paint1_linear_407_11081" x1="152.117" y1="40.2557" x2="-0.296286" y2="11.3003" gradientUnits="userSpaceOnUse">
<stop stop-color="#EEB775"/>
<stop offset="0.25" stop-color="#B88624"/>
<stop offset="0.5" stop-color="#FED12C"/>
<stop offset="0.75" stop-color="#FFFCF1"/>
<stop offset="1" stop-color="#FFC200"/>
</linearGradient>
<linearGradient id="paint2_linear_407_11081" x1="82.69" y1="-6.40365" x2="73.6092" y2="36.4999" gradientUnits="userSpaceOnUse">
<stop stop-color="#FBC104"/>
<stop offset="0.496" stop-color="#FFFF96"/>
<stop offset="1" stop-color="#FAC815"/>
</linearGradient>
<linearGradient id="paint3_linear_407_11081" x1="97.5328" y1="14.9553" x2="96.7991" y2="34.6513" gradientUnits="userSpaceOnUse">
<stop stop-color="#FBC104"/>
<stop offset="0.496" stop-color="#FFFF96"/>
<stop offset="1" stop-color="#FAC815"/>
</linearGradient>
<linearGradient id="paint4_linear_407_11081" x1="94.2771" y1="6.15689" x2="93.5022" y2="20.4591" gradientUnits="userSpaceOnUse">
<stop stop-color="#FBC104"/>
<stop offset="0.496" stop-color="#FFFF96"/>
<stop offset="1" stop-color="#FAC815"/>
</linearGradient>
<linearGradient id="paint5_linear_407_11081" x1="72.3972" y1="4.5316" x2="71.4172" y2="20.6091" gradientUnits="userSpaceOnUse">
<stop stop-color="#FBC104"/>
<stop offset="0.496" stop-color="#FFFF96"/>
<stop offset="1" stop-color="#FAC815"/>
</linearGradient>
<linearGradient id="paint6_linear_407_11081" x1="109.121" y1="-0.079813" x2="108.454" y2="19.6208" gradientUnits="userSpaceOnUse">
<stop stop-color="#FBC104"/>
<stop offset="0.496" stop-color="#FFFF96"/>
<stop offset="1" stop-color="#FAC815"/>
</linearGradient>
<linearGradient id="paint7_linear_407_11081" x1="68.816" y1="14.9553" x2="68.0823" y2="34.6513" gradientUnits="userSpaceOnUse">
<stop stop-color="#FBC104"/>
<stop offset="0.496" stop-color="#FFFF96"/>
<stop offset="1" stop-color="#FAC815"/>
</linearGradient>
<linearGradient id="paint8_linear_407_11081" x1="57.2957" y1="24.6978" x2="57.079" y2="33.6577" gradientUnits="userSpaceOnUse">
<stop stop-color="#FBC104"/>
<stop offset="0.496" stop-color="#FFFF96"/>
<stop offset="1" stop-color="#FAC815"/>
</linearGradient>
<linearGradient id="paint9_linear_407_11081" x1="56.5113" y1="-0.079813" x2="55.7776" y2="19.6161" gradientUnits="userSpaceOnUse">
<stop stop-color="#FBC104"/>
<stop offset="0.496" stop-color="#FFFF96"/>
<stop offset="1" stop-color="#FAC815"/>
</linearGradient>
<linearGradient id="paint10_linear_407_11081" x1="108.539" y1="23.0745" x2="108.266" y2="33.8256" gradientUnits="userSpaceOnUse">
<stop stop-color="#FBC104"/>
<stop offset="0.496" stop-color="#FFFF96"/>
<stop offset="1" stop-color="#FAC815"/>
</linearGradient>
<linearGradient id="paint11_linear_407_11081" x1="84.3316" y1="33.0857" x2="84.2682" y2="48.0029" gradientUnits="userSpaceOnUse">
<stop stop-color="#FBC104"/>
<stop offset="0.496" stop-color="#FFFF96"/>
<stop offset="1" stop-color="#FAC815"/>
</linearGradient>
<radialGradient id="paint12_radial_407_11081" cx="0" cy="0" r="1" gradientUnits="userSpaceOnUse" gradientTransform="translate(85.6631 40.9125) rotate(12.4772) scale(28.639 28.5042)">
<stop stop-color="#FF8A00"/>
<stop offset="1" stop-color="#FF8A00" stop-opacity="0"/>
</radialGradient>
</defs>
</svg>
